{
  "asset": { "version": "2.0", "generator": "3D Studio Foundation first-party sample generator" },
  "scene": 0,
  "scenes": [{ "nodes": [0] }],
  "nodes": [{ "mesh": 0, "name": "Low-poly Pyramid" }],
  "meshes": [{
    "name": "Low-poly Pyramid",
    "primitives": [{ "attributes": { "POSITION": 0 }, "indices": 1, "material": 0 }]
  }],
  "materials": [{
    "name": "Foundation Graphite",
    "pbrMetallicRoughness": { "baseColorFactor": [0.18, 0.24, 0.32, 1], "metallicFactor": 0.45, "roughnessFactor": 0.48 },
    "doubleSided": true
  }],
  "buffers": [{
    "byteLength": 96,
    "uri": "data:application/octet-stream;base64,"
  }],
  "bufferViews": [
    { "buffer": 0, "byteOffset": 0, "byteLength": 60, "target": 34962 },
    { "buffer": 0, "byteOffset": 60, "byteLength": 36, "target": 34963 }
  ],
  "accessors": [
    { "bufferView": 0, "componentType": 5126, "count": 5, "type": "VEC3", "min": [-1, -1, -1], "max": [1, 1, 1] },
    { "bufferView": 1, "componentType": 5123, "count": 18, "type": "SCALAR", "min": [0], "max": [4] }
  ]
}
