{
  "asset": { "version": "2.0", "generator": "3D Studio Foundation first-party sample generator" },
  "scene": 0,
  "scenes": [{ "nodes": [0] }],
  "nodes": [{ "mesh": 0, "name": "Signal Triangle" }],
  "meshes": [{
    "name": "Signal Triangle",
    "primitives": [{ "attributes": { "POSITION": 0 }, "indices": 1, "material": 0 }]
  }],
  "materials": [{
    "name": "Foundation Lime",
    "pbrMetallicRoughness": { "baseColorFactor": [0.48, 1, 0.14, 1], "metallicFactor": 0.05, "roughnessFactor": 0.7 },
    "doubleSided": true
  }],
  "buffers": [{
    "byteLength": 44,
    "uri": "data:application/octet-stream;base64,"
  }],
  "bufferViews": [
    { "buffer": 0, "byteOffset": 0, "byteLength": 36, "target": 34962 },
    { "buffer": 0, "byteOffset": 36, "byteLength": 6, "target": 34963 }
  ],
  "accessors": [
    { "bufferView": 0, "componentType": 5126, "count": 3, "type": "VEC3", "min": [-1, 0, 0], "max": [1, 1.6, 0] },
    { "bufferView": 1, "componentType": 5123, "count": 3, "type": "SCALAR", "min": [0], "max": [2] }
  ]
}
